<?xml version="1.0" encoding="iso-8859-1"?>
<!-- Generator: Adobe Illustrator 19.0.0, SVG Export Plug-In . SVG Version: 6.00 Build 0)  -->
<svg version="1.1" id="Layer_1" xmlns="http://www.w3.org/2000/svg" xmlns:xlink="http://www.w3.org/1999/xlink" x="0px" y="0px"
	 viewBox="0 0 512 512" style="enable-background:new 0 0 512 512;" xml:space="preserve">
<circle style="fill:#E9EFF4;" cx="256" cy="256" r="256"/>
<path style="fill:#CFDBE6;" d="M504.808,316.423L281.54,93.155l-88.462,46.482l-49.169,33.07l77.343,77.343l-69.548,33.964
	l102.502,102.502l-83.539,40.151L256,512l0,0C376.568,512,477.649,428.644,504.808,316.423z"/>
<path style="fill:#9A4F03;" d="M347.632,245.226c-1.903,0-3.448-1.545-3.448-3.448v-48.144c0-4.718-1.836-9.156-5.173-12.491
	l-22.261-22.261c-1.346-1.346-1.346-3.529,0-4.875c1.346-1.346,3.529-1.346,4.875,0l22.261,22.261
	c4.639,4.637,7.194,10.807,7.194,17.367v48.144C351.08,243.681,349.537,245.226,347.632,245.226z"/>
<path style="fill:#804000;" d="M329.387,167.4L329.387,167.4c-3.667,3.701-9.64,3.731-13.341,0.064l-8.714-8.632
	c-3.701-3.667-3.731-9.64-0.064-13.343l0,0c3.667-3.701,9.64-3.731,13.341-0.064l8.714,8.632
	C333.024,157.724,333.053,163.697,329.387,167.4z"/>
<rect x="170.667" y="256" style="fill:#05BEA6;" width="170.667" height="170.667"/>
<g>
	<rect x="255.862" y="256" style="fill:#00A49A;" width="85.476" height="170.667"/>
	<rect x="151.704" y="227.987" style="fill:#00A49A;" width="208.593" height="56.027"/>
</g>
<rect x="255.862" y="227.987" style="fill:#2C9984;" width="104.434" height="56.027"/>
<path style="fill:#FC6F58;" d="M275.753,90.936H150.914c-4.799,0-8.692,3.891-8.692,8.692v67.951c0,4.799,3.891,8.692,8.692,8.692
	h82.244L256,199.113v-22.842h19.753c4.799,0,8.692-3.891,8.692-8.692V99.628C284.444,94.827,280.554,90.936,275.753,90.936z"/>
<path style="fill:#F1543F;" d="M275.753,90.936h-69.46v85.333h26.864l22.842,22.842v-22.842h19.753c4.799,0,8.692-3.891,8.692-8.692
	V99.628C284.444,94.827,280.554,90.936,275.753,90.936z"/>
<g>
</g>
<g>
</g>
<g>
</g>
<g>
</g>
<g>
</g>
<g>
</g>
<g>
</g>
<g>
</g>
<g>
</g>
<g>
</g>
<g>
</g>
<g>
</g>
<g>
</g>
<g>
</g>
<g>
</g>
</svg>
