<?xml version="1.0" encoding="iso-8859-1"?>
<!-- Generator: Adobe Illustrator 19.0.0, SVG Export Plug-In . SVG Version: 6.00 Build 0)  -->
<svg version="1.1" id="Layer_1" xmlns="http://www.w3.org/2000/svg" xmlns:xlink="http://www.w3.org/1999/xlink" x="0px" y="0px"
	 viewBox="0 0 512 512" style="enable-background:new 0 0 512 512;" xml:space="preserve">
<circle style="fill:#84DBFF;" cx="256" cy="256" r="256"/>
<path style="fill:#31BAFD;" d="M201.554,262.465l-2.443,144.377L300.42,508.151c111.518-19.511,198.206-111.187,210.163-225.125
	L369.778,142.222l-166.8,78.691l-1.21,28.922L201.554,262.465z"/>
<path style="fill:#324A5E;" d="M10.231,327.83C41.282,434.247,139.554,512,256,512s214.718-77.753,245.769-184.17L10.231,327.83
	L10.231,327.83z"/>
<polygon style="fill:#C1321F;" points="369.778,256 199.111,256 199.111,142.222 369.778,142.222 341.333,199.111 "/>
<polygon style="fill:#A82116;" points="341.549,198.68 199.111,198.68 199.111,256 369.778,256 341.333,199.111 "/>
<path style="fill:#CFDBE6;" d="M199.111,406.842c-4.761,0-8.62-3.858-8.62-8.62v-256c0-4.761,3.858-8.62,8.62-8.62
	s8.62,3.858,8.62,8.62v256C207.731,402.984,203.871,406.842,199.111,406.842z"/>
<g>
</g>
<g>
</g>
<g>
</g>
<g>
</g>
<g>
</g>
<g>
</g>
<g>
</g>
<g>
</g>
<g>
</g>
<g>
</g>
<g>
</g>
<g>
</g>
<g>
</g>
<g>
</g>
<g>
</g>
</svg>
