<?xml version="1.0" encoding="iso-8859-1"?>
<!-- Generator: Adobe Illustrator 19.0.0, SVG Export Plug-In . SVG Version: 6.00 Build 0)  -->
<svg version="1.1" id="Layer_1" xmlns="http://www.w3.org/2000/svg" xmlns:xlink="http://www.w3.org/1999/xlink" x="0px" y="0px"
	 viewBox="0 0 512 512" style="enable-background:new 0 0 512 512;" xml:space="preserve">
<circle style="fill:#31BAFD;" cx="256" cy="256" r="256"/>
<g>
	<path style="fill:#B54324;" d="M264.74,153.836c-0.241-0.24-0.441-0.438-0.605-0.6C264.361,153.46,264.59,153.688,264.74,153.836z"
		/>
	<path style="fill:#B54324;" d="M264.873,153.967c-0.028-0.028-0.076-0.074-0.131-0.129
		C264.787,153.883,264.823,153.917,264.873,153.967z"/>
	<path style="fill:#B54324;" d="M264.907,154.002c-0.014-0.014-0.022-0.022-0.036-0.036
		C264.895,153.99,264.907,154.002,264.907,154.002z"/>
</g>
<path style="fill:#2B9ED8;" d="M506.497,308.981L306.15,108.635l-41.243,45.366l-59.058,56.706l25.036,25.036l-62.648,0.576v102.298
	l-50.15,39.636L251.78,511.947c1.405,0.022,2.81,0.053,4.22,0.053C379.22,512,482.092,424.941,506.497,308.981z"/>
<g>
	<path style="fill:#B54324;" d="M263.704,152.81C263.373,152.481,263.463,152.569,263.704,152.81L263.704,152.81z"/>
	<path style="fill:#B54324;" d="M264.135,153.236c-0.159-0.157-0.312-0.31-0.431-0.428
		C263.804,152.909,263.952,153.055,264.135,153.236z"/>
</g>
<polygon style="fill:#324A5E;" points="259.448,232.872 259.448,179.431 252.552,179.431 252.552,232.872 167.219,232.872 
	167.219,264.764 174.114,264.764 174.114,239.768 337.886,239.768 337.886,264.764 344.781,264.764 344.781,232.872 "/>
<polygon style="fill:#2B3B4E;" points="259.448,232.872 259.448,179.431 255.857,179.431 255.857,239.768 337.886,239.768 
	337.886,264.764 344.781,264.764 344.781,232.872 "/>
<polygon style="fill:#E9EFF4;" points="282.85,85.333 205.852,85.333 205.852,210.708 306.15,210.708 306.15,108.635 "/>
<polygon style="fill:#CFDBE6;" points="306.15,108.635 282.85,85.333 255.857,85.333 255.857,210.708 306.15,210.708 "/>
<polygon style="fill:#B8C9D9;" points="282.85,108.635 306.15,108.635 282.85,85.333 "/>
<polygon style="fill:#E9EFF4;" points="195.088,252.88 118.088,252.88 118.088,378.254 218.388,378.254 218.388,276.182 "/>
<polygon style="fill:#CFDBE6;" points="218.388,276.182 195.088,252.88 164.059,252.88 164.059,378.254 218.388,378.254 "/>
<polygon style="fill:#B8C9D9;" points="195.088,276.182 218.388,276.182 195.088,252.88 "/>
<polygon style="fill:#E9EFF4;" points="370.612,252.88 293.614,252.88 293.614,378.254 393.912,378.254 393.912,276.182 "/>
<polygon style="fill:#CFDBE6;" points="393.912,276.182 370.612,252.88 341.621,252.88 341.621,378.254 393.912,378.254 "/>
<polygon style="fill:#B8C9D9;" points="370.612,276.182 393.912,276.182 370.612,252.88 "/>
<g>
</g>
<g>
</g>
<g>
</g>
<g>
</g>
<g>
</g>
<g>
</g>
<g>
</g>
<g>
</g>
<g>
</g>
<g>
</g>
<g>
</g>
<g>
</g>
<g>
</g>
<g>
</g>
<g>
</g>
</svg>
